<mxfile host="65bd71144e">
    <diagram id="IaWl7wJX43ncWke2TTGu" name="Page-1">
        <mxGraphModel dx="690" dy="1747" grid="1" gridSize="10" guides="1" tooltips="1" connect="1" arrows="1" fold="1" page="1" pageScale="1" pageWidth="850" pageHeight="1100" math="0" shadow="0">
            <root>
                <mxCell id="0"/>
                <mxCell id="1" parent="0"/>
                <mxCell id="26" value="J3" style="rounded=0;whiteSpace=wrap;html=1;fontSize=24;strokeColor=#005700;fontColor=#ffffff;shadow=1;fillColor=#336600;" vertex="1" parent="1">
                    <mxGeometry x="290" y="-920" width="240" height="40" as="geometry"/>
                </mxCell>
                <mxCell id="16" value="J3" style="rounded=0;whiteSpace=wrap;html=1;fontSize=24;strokeColor=#005700;fontColor=#ffffff;shadow=1;fillColor=#336600;" vertex="1" parent="1">
                    <mxGeometry x="290" y="-1000" width="240" height="40" as="geometry"/>
                </mxCell>
                <mxCell id="23" value="J1" style="rounded=0;whiteSpace=wrap;html=1;fontSize=24;fillColor=#60a917;strokeColor=#2D7600;fontColor=#ffffff;shadow=1;" vertex="1" parent="1">
                    <mxGeometry x="170" y="-920" width="120" height="40" as="geometry"/>
                </mxCell>
                <mxCell id="21" value="J2" style="rounded=0;whiteSpace=wrap;html=1;fontSize=24;fillColor=#008a00;strokeColor=#005700;fontColor=#ffffff;shadow=1;" vertex="1" parent="1">
                    <mxGeometry x="90" y="-920" width="80" height="40" as="geometry"/>
                </mxCell>
                <mxCell id="20" value="J1" style="rounded=0;whiteSpace=wrap;html=1;fontSize=24;fillColor=#60a917;strokeColor=#2D7600;fontColor=#ffffff;shadow=1;" vertex="1" parent="1">
                    <mxGeometry x="10" y="-920" width="80" height="40" as="geometry"/>
                </mxCell>
                <mxCell id="15" value="J2" style="rounded=0;whiteSpace=wrap;html=1;fontSize=24;fillColor=#008a00;strokeColor=#005700;fontColor=#ffffff;shadow=1;" vertex="1" parent="1">
                    <mxGeometry x="210" y="-1000" width="80" height="40" as="geometry"/>
                </mxCell>
                <mxCell id="6" value="J1" style="rounded=0;whiteSpace=wrap;html=1;fontSize=24;fillColor=#60a917;strokeColor=#2D7600;fontColor=#ffffff;shadow=1;" vertex="1" parent="1">
                    <mxGeometry x="10" y="-1000" width="200" height="40" as="geometry"/>
                </mxCell>
                <mxCell id="24" value="Time" style="endArrow=open;html=1;endFill=0;endSize=19;fontSize=18;" edge="1" parent="1">
                    <mxGeometry y="-20" width="50" height="50" relative="1" as="geometry">
                        <mxPoint x="170" y="-860" as="sourcePoint"/>
                        <mxPoint x="370" y="-860" as="targetPoint"/>
                        <mxPoint as="offset"/>
                    </mxGeometry>
                </mxCell>
                <mxCell id="25" value="J2 added" style="endArrow=open;html=1;endFill=0;endSize=19;fontSize=18;" edge="1" parent="1">
                    <mxGeometry x="-0.3333" y="40" width="50" height="50" relative="1" as="geometry">
                        <mxPoint x="90" y="-1080" as="sourcePoint"/>
                        <mxPoint x="90" y="-1020" as="targetPoint"/>
                        <mxPoint as="offset"/>
                    </mxGeometry>
                </mxCell>
                <mxCell id="27" value="SJF" style="text;html=1;strokeColor=none;fillColor=none;align=center;verticalAlign=middle;whiteSpace=wrap;rounded=0;fontSize=25;" vertex="1" parent="1">
                    <mxGeometry x="540" y="-990" width="40" height="20" as="geometry"/>
                </mxCell>
                <mxCell id="28" value="SRT" style="text;html=1;strokeColor=none;fillColor=none;align=center;verticalAlign=middle;whiteSpace=wrap;rounded=0;fontSize=25;" vertex="1" parent="1">
                    <mxGeometry x="540" y="-910" width="40" height="20" as="geometry"/>
                </mxCell>
            </root>
        </mxGraphModel>
    </diagram>
</mxfile>